<svg xmlns="http://www.w3.org/2000/svg" xmlns:xlink="http://www.w3.org/1999/xlink"><symbol id="arrow-slider" viewBox="0 0 18 34"><g fill="none"><path d="M17 1L0.999999 17L17 33" stroke="currentColor"/></g></symbol><symbol id="icon-ok" viewBox="0 0 10 17"><g fill="none"><path d="M4.68026 2.88903C5.57876 2.88903 6.30946 3.64334 6.30946 4.57085C6.30946 5.49557 5.57876 6.24987 4.68026 6.24987C3.78177 6.24987 3.05107 5.49557 3.05107 4.57085C3.05107 3.64334 3.78177 2.88903 4.68026 2.88903ZM4.68026 8.63012C6.85072 8.63012 8.61523 6.80862 8.61523 4.57085C8.61523 2.33029 6.85072 0.508789 4.68026 0.508789C2.5098 0.508789 0.747998 2.33029 0.747998 4.57085C0.747998 6.80862 2.5098 8.63012 4.68026 8.63012ZM6.27157 11.9435C7.07264 11.7535 7.84394 11.4266 8.55569 10.9657C9.09425 10.6164 9.25663 9.8817 8.91834 9.32575C8.57734 8.76701 7.86829 8.59939 7.32703 8.95139C5.71678 9.99624 3.64375 9.99624 2.03079 8.95139C1.49223 8.59939 0.780474 8.76701 0.442186 9.32575C0.103897 9.8817 0.266275 10.6164 0.804831 10.9657C1.51659 11.4266 2.28789 11.7535 3.08895 11.9435L0.888726 14.212C0.439479 14.6757 0.439479 15.43 0.888726 15.8938C1.11606 16.1257 1.40834 16.243 1.70332 16.243C1.99831 16.243 2.2933 16.1257 2.52063 15.8938L4.68026 13.6644L6.8426 15.8938C7.29185 16.3603 8.01985 16.3603 8.4718 15.8938C8.92105 15.43 8.92105 14.6757 8.4718 14.212L6.27157 11.9435Z" fill="currentColor"/></g></symbol><symbol id="icon-reddit" viewBox="0 0 15 15"><g fill="none"><path d="M8.85101 0.555664C8.40563 0.555664 7.9877 0.781596 7.71963 1.10741C7.45156 1.43323 7.30381 1.8304 7.19616 2.24897C7.02518 2.92201 6.97241 3.66877 6.95975 4.34181C5.70806 4.42505 4.57457 4.79606 3.63316 5.36921C3.2511 5.04815 2.79095 4.86978 2.3498 4.87454C1.84743 4.87929 1.3704 5.09571 1.01579 5.54044C0.338225 6.38947 0.416324 7.77836 1.20154 8.60361C1.15299 8.85808 1.1171 9.11969 1.1171 9.38367C1.1171 12.1805 3.9751 14.4446 7.50011 14.4446C11.0251 14.4446 13.8831 12.1781 13.8831 9.38367C13.8831 9.11969 13.8472 8.85808 13.7987 8.60361C14.5839 7.77836 14.662 6.38947 13.9844 5.54044C13.6298 5.09571 13.1528 4.87929 12.6504 4.87454C12.2093 4.86978 11.7491 5.04815 11.3671 5.36921C10.4299 4.79843 9.30272 4.42743 8.05736 4.34181C8.07424 3.72109 8.11857 3.07659 8.2431 2.59143C8.3212 2.28702 8.41408 2.06584 8.51328 1.94455C8.61249 1.82326 8.68426 1.77332 8.85101 1.77332C9.21195 1.77332 9.25839 1.88985 9.4758 2.17286C9.58556 2.31556 9.71221 2.49393 9.91484 2.66754C10.1175 2.84115 10.4172 2.99098 10.7423 2.99098V1.77332C10.6515 1.77332 10.6346 1.77094 10.5734 1.71624C10.5122 1.66154 10.4278 1.5355 10.3032 1.37378C10.0542 1.04796 9.57079 0.555664 8.85101 0.555664ZM12.3634 0.669819C11.5233 0.669819 10.8436 1.43561 10.8436 2.38215C10.8436 3.32869 11.5233 4.09448 12.3634 4.09448C13.2034 4.09448 13.8831 3.32869 13.8831 2.38215C13.8831 1.43561 13.2034 0.669819 12.3634 0.669819ZM12.3634 1.27865C12.9037 1.27865 13.3428 1.77332 13.3428 2.38215C13.3428 2.99098 12.9037 3.48565 12.3634 3.48565C11.823 3.48565 11.3839 2.99098 11.3839 2.38215C11.3839 1.77332 11.823 1.27865 12.3634 1.27865ZM7.50011 5.29311C10.4911 5.29311 13.0219 7.16953 13.0219 9.38367C13.0219 11.6002 10.4911 13.4742 7.50011 13.4742C4.50913 13.4742 1.9783 11.6002 1.9783 9.38367C1.9783 7.16953 4.50913 5.29311 7.50011 5.29311ZM2.36669 5.84486C2.51655 5.84724 2.67275 5.88529 2.82262 5.95901C2.28015 6.42277 1.84955 6.95549 1.55615 7.55719C1.35351 7.0863 1.40839 6.49887 1.65746 6.18732C1.83899 5.95901 2.09017 5.84248 2.36669 5.84486ZM12.6335 5.84486C12.91 5.84248 13.1612 5.95901 13.3428 6.18732C13.5918 6.49887 13.6467 7.0863 13.4441 7.55719C13.1507 6.95549 12.7201 6.42277 12.1776 5.95901C12.3275 5.88529 12.4837 5.84724 12.6335 5.84486ZM5.33867 7.36693C4.79831 7.36693 4.35927 7.8616 4.35927 8.47043C4.35927 9.07926 4.79831 9.57393 5.33867 9.57393C5.87903 9.57393 6.31807 9.07926 6.31807 8.47043C6.31807 7.8616 5.87903 7.36693 5.33867 7.36693ZM9.66155 7.36693C9.12119 7.36693 8.68215 7.8616 8.68215 8.47043C8.68215 9.07926 9.12119 9.57393 9.66155 9.57393C10.2019 9.57393 10.641 9.07926 10.641 8.47043C10.641 7.8616 10.2019 7.36693 9.66155 7.36693ZM4.81519 11.115C5.15925 11.9165 6.22309 12.6942 7.50011 12.6942C8.77713 12.6942 9.85785 11.9165 10.2019 11.115C9.57712 11.5693 8.59138 11.8761 7.50011 11.8761C6.40883 11.8761 5.43999 11.5693 4.81519 11.115Z" fill="currentColor"/></g></symbol><symbol id="icon-vk" viewBox="0 0 13 8"><g fill="none"><path d="M7.72271 6.05176C8.16539 5.90867 8.73216 6.99638 9.33552 7.41267C9.78838 7.728 10.1352 7.65993 10.1352 7.65993L11.7434 7.63678C11.7434 7.63678 12.5838 7.58492 12.1865 6.9172C12.1536 6.86163 11.9536 6.4222 10.9895 5.51786C9.98147 4.57185 10.1181 4.72512 11.3317 3.08962C12.0712 2.09267 12.3671 1.48376 12.2745 1.22445C12.1856 0.974862 11.6424 1.03969 11.6424 1.03969L9.83052 1.05219C9.6541 1.05265 9.50453 1.10729 9.43646 1.29066C9.43507 1.29252 9.14891 2.06211 8.76735 2.7164C7.96118 4.10046 7.63936 4.17408 7.506 4.08749C7.19992 3.88699 7.27725 3.28317 7.27725 2.85392C7.27725 1.51246 7.47729 0.953099 6.88551 0.808627C6.68779 0.760469 6.54332 0.728982 6.03905 0.724351C5.39449 0.714627 4.84716 0.724351 4.53692 0.876695C4.33086 0.979956 4.17296 1.20639 4.26881 1.21935C4.3892 1.23556 4.65916 1.29344 4.80363 1.4907C4.98932 1.74631 4.98376 2.3191 4.98376 2.3191C4.98376 2.3191 5.0898 3.89857 4.73371 4.09444C4.48922 4.22872 4.1549 3.9546 3.43578 2.69788C3.06858 2.05516 2.79121 1.34484 2.79121 1.34484C2.79121 1.34484 2.7375 1.21287 2.64026 1.14063C2.52449 1.05497 2.36243 1.02765 2.36243 1.02765L0.642654 1.03876C0.642654 1.03876 0.384271 1.04617 0.289345 1.16008C0.20507 1.26103 0.2824 1.4694 0.2824 1.4694C0.2824 1.4694 1.62942 4.65566 3.15471 6.26059C4.55312 7.73402 6.14231 7.63632 6.14231 7.63632H6.86236C6.86236 7.63632 7.07953 7.61131 7.19066 7.49185C7.29439 7.38071 7.28976 7.17188 7.28976 7.17188C7.28976 7.17188 7.2754 6.1953 7.72271 6.05176Z" fill="currentColor"/></g></symbol><symbol id="logo-footer" viewBox="0 0 106 19"><g fill="none"><path d="M8.30469 13.6875C8.30469 13.2891 8.25781 12.9375 8.16406 12.6328C8.07031 12.3203 7.90625 12.0391 7.67188 11.7891C7.4375 11.5391 7.10938 11.3008 6.6875 11.0742C6.26562 10.8477 5.73047 10.6172 5.08203 10.3828C4.37891 10.1328 3.74219 9.85547 3.17188 9.55078C2.60156 9.23828 2.11328 8.88281 1.70703 8.48438C1.30859 8.08594 1 7.62891 0.78125 7.11328C0.5625 6.59766 0.453125 6.00781 0.453125 5.34375C0.453125 4.67969 0.566406 4.06641 0.792969 3.50391C1.02734 2.94141 1.35547 2.45312 1.77734 2.03906C2.20703 1.61719 2.72266 1.28906 3.32422 1.05469C3.92578 0.820312 4.59766 0.703125 5.33984 0.703125C6.44922 0.703125 7.38281 0.949219 8.14062 1.44141C8.90625 1.92578 9.48438 2.5625 9.875 3.35156C10.2656 4.13281 10.4609 4.96875 10.4609 5.85938H8.30469C8.30469 5.21875 8.19922 4.65234 7.98828 4.16016C7.78516 3.66016 7.46484 3.26953 7.02734 2.98828C6.59766 2.69922 6.03516 2.55469 5.33984 2.55469C4.71484 2.55469 4.19922 2.67578 3.79297 2.91797C3.39453 3.16016 3.09766 3.48828 2.90234 3.90234C2.71484 4.31641 2.62109 4.78906 2.62109 5.32031C2.62109 5.67969 2.68359 6.00781 2.80859 6.30469C2.93359 6.59375 3.125 6.86328 3.38281 7.11328C3.64844 7.36328 3.97656 7.59375 4.36719 7.80469C4.76562 8.01562 5.23438 8.21875 5.77344 8.41406C6.60938 8.6875 7.32422 8.99219 7.91797 9.32812C8.51172 9.66406 8.99609 10.043 9.37109 10.4648C9.74609 10.8789 10.0195 11.3516 10.1914 11.8828C10.3711 12.4062 10.4609 13 10.4609 13.6641C10.4609 14.3594 10.3438 14.9883 10.1094 15.5508C9.88281 16.1133 9.55078 16.5938 9.11328 16.9922C8.67578 17.3906 8.14844 17.6992 7.53125 17.918C6.91406 18.1289 6.21875 18.2344 5.44531 18.2344C4.77344 18.2344 4.11328 18.125 3.46484 17.9062C2.82422 17.6875 2.24219 17.3594 1.71875 16.9219C1.19531 16.4844 0.777344 15.9453 0.464844 15.3047C0.152344 14.6562 -0.00390625 13.9062 -0.00390625 13.0547H2.15234C2.15234 13.6406 2.23828 14.1445 2.41016 14.5664C2.58203 14.9805 2.82031 15.3242 3.125 15.5977C3.42969 15.8711 3.77734 16.0742 4.16797 16.207C4.56641 16.332 4.99219 16.3945 5.44531 16.3945C6.07031 16.3945 6.59375 16.2852 7.01562 16.0664C7.44531 15.8477 7.76562 15.5352 7.97656 15.1289C8.19531 14.7227 8.30469 14.2422 8.30469 13.6875ZM21.3125 0.9375H23.4688V12.9492C23.4688 14.2305 23.2227 15.2578 22.7305 16.0312C22.2383 16.8047 21.5898 17.3672 20.7852 17.7188C19.9883 18.0625 19.1289 18.2344 18.207 18.2344C17.2227 18.2344 16.3359 18.0625 15.5469 17.7188C14.7578 17.3672 14.1289 16.8047 13.6602 16.0312C13.1992 15.2578 12.9688 14.2305 12.9688 12.9492V0.9375H15.1133V12.9492C15.1133 13.8398 15.2383 14.5352 15.4883 15.0352C15.7461 15.5352 16.1055 15.8867 16.5664 16.0898C17.0352 16.293 17.582 16.3945 18.207 16.3945C18.8398 16.3945 19.3867 16.293 19.8477 16.0898C20.3164 15.8867 20.6758 15.5352 20.9258 15.0352C21.1836 14.5352 21.3125 13.8398 21.3125 12.9492V0.9375ZM32.1992 11.3086H28.4727V9.46875H32.1992C32.9023 9.46875 33.4688 9.32812 33.8984 9.04688C34.3359 8.76562 34.6523 8.375 34.8477 7.875C35.0508 7.375 35.1523 6.80469 35.1523 6.16406C35.1523 5.57812 35.0508 5.02734 34.8477 4.51172C34.6523 3.99609 34.3359 3.58203 33.8984 3.26953C33.4688 2.94922 32.9023 2.78906 32.1992 2.78906H28.918V18H26.7617V0.9375H32.1992C33.3008 0.9375 34.2305 1.16016 34.9883 1.60547C35.7461 2.05078 36.3203 2.66797 36.7109 3.45703C37.1094 4.23828 37.3086 5.13281 37.3086 6.14062C37.3086 7.23438 37.1094 8.16797 36.7109 8.94141C36.3203 9.71484 35.7461 10.3047 34.9883 10.7109C34.2305 11.1094 33.3008 11.3086 32.1992 11.3086ZM49.25 16.1602V18H41.8438V16.1602H49.25ZM42.2305 0.9375V18H40.0742V0.9375H42.2305ZM48.2539 8.27344V10.1133H41.8438V8.27344H48.2539ZM49.1328 0.9375V2.78906H41.8438V0.9375H49.1328ZM52.0156 0.9375H56.7852C57.8945 0.9375 58.8242 1.13281 59.5742 1.52344C60.332 1.91406 60.9023 2.49219 61.2852 3.25781C61.6758 4.01563 61.8711 4.94922 61.8711 6.05859C61.8711 6.83984 61.7422 7.55469 61.4844 8.20312C61.2266 8.84375 60.8516 9.39062 60.3594 9.84375C59.8672 10.2891 59.2695 10.6211 58.5664 10.8398L57.9805 11.0859H53.7266L53.7031 9.24609H56.7617C57.418 9.24609 57.9648 9.10547 58.4023 8.82422C58.8398 8.53516 59.168 8.14844 59.3867 7.66406C59.6055 7.17969 59.7148 6.64453 59.7148 6.05859C59.7148 5.40234 59.6172 4.82812 59.4219 4.33594C59.2266 3.84375 58.9141 3.46484 58.4844 3.19922C58.0625 2.92578 57.4961 2.78906 56.7852 2.78906H54.1719V18H52.0156V0.9375ZM60.207 18L56.8086 10.2656L59.0469 10.2539L62.5156 17.8594V18H60.207ZM75.4414 9.50391V15.8672C75.2539 16.1172 74.9688 16.4297 74.5859 16.8047C74.2109 17.1797 73.6836 17.5117 73.0039 17.8008C72.3242 18.0898 71.4336 18.2344 70.332 18.2344C69.4492 18.2344 68.6406 18.0859 67.9062 17.7891C67.1797 17.4922 66.5508 17.0469 66.0195 16.4531C65.4961 15.8516 65.0898 15.1055 64.8008 14.2148C64.5117 13.3164 64.3672 12.2656 64.3672 11.0625V7.86328C64.3672 6.66797 64.4883 5.62109 64.7305 4.72266C64.9727 3.82422 65.332 3.07813 65.8086 2.48438C66.293 1.89062 66.8906 1.44531 67.6016 1.14844C68.3203 0.851563 69.1562 0.703125 70.1094 0.703125C71.2109 0.703125 72.1484 0.910156 72.9219 1.32422C73.6953 1.73828 74.293 2.33594 74.7148 3.11719C75.1445 3.89844 75.3867 4.83594 75.4414 5.92969H73.2852C73.2305 5.22656 73.082 4.625 72.8398 4.125C72.5977 3.61719 72.2539 3.23047 71.8086 2.96484C71.3633 2.69141 70.7969 2.55469 70.1094 2.55469C69.4531 2.55469 68.8984 2.66406 68.4453 2.88281C67.9922 3.10156 67.6211 3.42969 67.332 3.86719C67.0508 4.30469 66.8438 4.85547 66.7109 5.51953C66.5859 6.18359 66.5234 6.95703 66.5234 7.83984V11.0625C66.5234 11.9688 66.6133 12.7578 66.793 13.4297C66.9727 14.1016 67.2266 14.6562 67.5547 15.0938C67.8906 15.5312 68.293 15.8594 68.7617 16.0781C69.2305 16.2891 69.7578 16.3945 70.3438 16.3945C71.0078 16.3945 71.5312 16.3242 71.9141 16.1836C72.2969 16.043 72.5898 15.8828 72.793 15.7031C73.0039 15.5234 73.1719 15.3789 73.2969 15.2695V11.332H70.168V9.50391H75.4414ZM79.8945 0.9375L83.375 9.50391L86.8672 0.9375H89.3047L84.4531 11.625V18H82.2969V11.625L77.4453 0.9375H79.8945ZM92.2227 0.9375H94.3086L98.7734 14.8477L103.227 0.9375H105.312L99.582 18H97.9414L92.2227 0.9375ZM91.543 0.9375H93.3711L93.6875 11.3438V18H91.543V0.9375ZM104.152 0.9375H105.98V18H103.836V11.3438L104.152 0.9375Z" fill="white"/></g></symbol><symbol id="ruble" viewBox="0 0 30 42"><g fill="none"><path fill-rule="evenodd" clip-rule="evenodd" d="M0 17H6V23H0V17Z" fill="#102654"/><path fill-rule="evenodd" clip-rule="evenodd" d="M3.65854 28.3214V18H9.65854V28.3214H21V34.3214H9.65854V42H3.65854V34.3214H0V28.3214H3.65854Z" fill="#102654"/><path fill-rule="evenodd" clip-rule="evenodd" d="M18.5 6H10V17H18.5C21.5376 17 24 14.5376 24 11.5C24 8.46243 21.5376 6 18.5 6ZM4 0V23H18.5C24.8513 23 30 17.8513 30 11.5C30 5.14873 24.8513 0 18.5 0H4Z" fill="#102654"/></g></symbol><symbol id="video-play" viewBox="0 0 13 15"><path d="M13 7.5L0.249999 14.8612L0.25 0.138783L13 7.5Z" fill="currentColor"/></symbol></svg>